<svg xmlns="http://www.w3.org/2000/svg" width="15" height="15" viewBox="0 0 15 15">
    <g fill="#333" fill-rule="nonzero">
        <path d="M7.031.469c0 .259.21.469.469.469 1.753 0 3.4.682 4.64 1.922a6.519 6.519 0 0 1 1.922 4.64c0 1.73-.666 3.357-1.874 4.59v-1.309a.469.469 0 1 0-.938 0v2.813h2.813a.469.469 0 1 0 0-.938h-1.12A7.446 7.446 0 0 0 15 7.5a7.45 7.45 0 0 0-2.197-5.303A7.45 7.45 0 0 0 7.5 0a.469.469 0 0 0-.469.469zM2.197 12.803A7.45 7.45 0 0 0 7.5 15a.469.469 0 1 0 0-.938c-1.753 0-3.4-.682-4.64-1.922A6.519 6.519 0 0 1 .938 7.5c0-1.73.666-3.357 1.875-4.59v1.309a.469.469 0 1 0 .937 0V1.406H.937a.469.469 0 1 0 0 .938h1.12A7.446 7.446 0 0 0 0 7.5a7.45 7.45 0 0 0 2.197 5.303z"/>
    </g>
</svg>
