<?xml version="1.0" encoding="utf-8"?>
<!-- Generator: Adobe Illustrator 21.1.0, SVG Export Plug-In . SVG Version: 6.00 Build 0)  -->
<svg version="1.1" id="Layer_1" xmlns="http://www.w3.org/2000/svg" xmlns:xlink="http://www.w3.org/1999/xlink" x="0px" y="0px"
	 viewBox="0 0 30 30" style="enable-background:new 0 0 30 30;" xml:space="preserve">
<style type="text/css">
	.st0{clip-path:url(#SVGID_2_);}
	.st1{clip-path:url(#SVGID_4_);fill:#707070;}
</style>
<g>
	<defs>
		<path id="SVGID_1_" d="M29.7,12L18.6,0.3c-0.4-0.4-1.2-0.4-1.6,0c-0.3,0.2-0.3,0.6-0.3,0.9v6.3C7.5,7.5,0,14.7,0,23.6
			C0,25.9,0.5,28,1.4,30c1.3-6.7,7.9-11.8,15.3-11.8c0,0.4,0,6.3,0,6.3c0,0.3,0.1,0.6,0.3,0.9c0,0,0,0,0,0c0.2,0.2,0.5,0.3,0.8,0.3
			c0.3,0,0.6-0.2,0.8-0.4l11-11.7c0.2-0.2,0.3-0.5,0.3-0.8C30,12.6,29.9,12.3,29.7,12z M18.9,21.8v-5.7c0,0-2.6,0-3.4,0
			c-4.6,0-10.9,3.5-13.3,6.4c0-4,5.5-12.6,13.3-12.9c0.6,0,3.4,0,3.4,0V3.9l8.5,9L18.9,21.8z"/>
	</defs>
	<clipPath id="SVGID_2_">
		<use xlink:href="#SVGID_1_"  style="overflow:visible;"/>
	</clipPath>
	<g class="st0">
		<defs>
			<rect id="SVGID_3_" y="0" width="30" height="30"/>
		</defs>
		<clipPath id="SVGID_4_">
			<use xlink:href="#SVGID_3_"  style="overflow:visible;"/>
		</clipPath>
		<rect x="-7.5" y="-7.5" class="st1" width="45" height="45"/>
	</g>
</g>
</svg>
