<?xml version="1.0" encoding="utf-8"?>
<!-- Generator: Adobe Illustrator 21.1.0, SVG Export Plug-In . SVG Version: 6.00 Build 0)  -->
<svg version="1.1" id="Layer_1" xmlns="http://www.w3.org/2000/svg" xmlns:xlink="http://www.w3.org/1999/xlink" x="0px" y="0px"
	 viewBox="0 0 30 30" style="enable-background:new 0 0 30 30;" xml:space="preserve">
<style type="text/css">
	.st0{clip-path:url(#SVGID_2_);fill:#676F78;}
</style>
<g>
	<defs>
		<path id="SVGID_1_" d="M15,1.5c7.4,0,13.5,6.1,13.5,13.5c0,3.6-1.4,6.8-3.6,9.2c-2.1-1.4-4-2.4-4.8-2.9v-1.7
			c0.2-0.4,0.4-0.9,0.5-1.5c0.6-0.2,1-0.9,1.4-2.3c0.4-1.3,0.3-2.2-0.1-2.7c0.4-2.5,0.2-4.3-0.6-5.4c-0.4-0.6-1-0.8-1.3-1
			c-0.3-0.4-0.8-0.9-1.6-1.4c-1.1-0.6-2.3-0.9-3.6-0.8c-0.5,0-1,0.1-1.5,0.3h0c-0.5,0.2-1,0.4-1.5,0.8c-0.6,0.4-1.1,0.8-1.5,1.3
			c-0.9,0.9-1.5,1.9-1.7,3c-0.2,0.9-0.3,1.8-0.1,2.7c-0.1,0.1-0.2,0.1-0.2,0.2c-0.4,0.5-0.5,1.4-0.1,2.7c0.2,0.9,0.6,1.8,1.1,2.2
			c0.2,0.8,0.4,1.6,0.8,2.3v1.4c-0.8,0.4-2.7,1.4-4.8,2.9c-2.3-2.4-3.6-5.7-3.6-9.2C1.5,7.6,7.6,1.5,15,1.5z M6.3,25.3
			c2.2-1.5,4.1-2.5,4.7-2.7c0.3-0.2,0.6-0.5,0.6-0.9v-1.9c0-0.1,0-0.3-0.1-0.4c-0.4-0.6-0.6-1.4-0.8-2.3c0-0.3-0.3-0.5-0.5-0.6
			c-0.1-0.1-0.3-0.4-0.5-1.3c-0.2-0.7-0.2-1.1-0.2-1.2c0.2,0,0.4-0.1,0.6-0.3c0.2-0.2,0.2-0.5,0.1-0.7c-0.3-0.8-0.3-1.7-0.1-2.6
			c0.2-0.8,0.6-1.6,1.3-2.3c0.4-0.4,0.8-0.8,1.3-1c0,0,0,0,0,0c0.4-0.3,0.8-0.5,1.2-0.6h0c0.3-0.1,0.7-0.2,1.1-0.2
			c1-0.1,1.9,0.1,2.7,0.6c0.9,0.5,1.2,1.1,1.2,1.1c0.1,0.2,0.4,0.4,0.6,0.4c0,0,0.3,0.1,0.6,0.5c0.4,0.5,0.9,1.7,0.2,4.7
			c-0.1,0.3,0.1,0.7,0.4,0.8c0,0.1,0.1,0.5-0.2,1.3c-0.2,0.7-0.4,1.1-0.5,1.2c-0.1,0-0.3,0-0.4,0c-0.2,0.1-0.4,0.3-0.4,0.6
			c-0.1,0.7-0.3,1.3-0.6,1.8c0,0.1-0.1,0.2-0.1,0.3v2.2c0,0.4,0.2,0.7,0.6,0.9c0.6,0.3,2.5,1.2,4.7,2.7c-2.4,2-5.4,3.2-8.7,3.2
			C11.7,28.5,8.6,27.3,6.3,25.3z M0,15c0,8.3,6.7,15,15,15s15-6.7,15-15S23.3,0,15,0S0,6.7,0,15z"/>
	</defs>
	<clipPath id="SVGID_2_">
		<use xlink:href="#SVGID_1_"  style="overflow:visible;"/>
	</clipPath>
	<rect x="-5" y="-5" class="st0" width="40" height="40"/>
</g>
</svg>
