<?xml version="1.0" encoding="utf-8"?>
<!-- Generator: Adobe Illustrator 21.1.0, SVG Export Plug-In . SVG Version: 6.00 Build 0)  -->
<svg version="1.1" id="Layer_1" xmlns="http://www.w3.org/2000/svg" xmlns:xlink="http://www.w3.org/1999/xlink" x="0px" y="0px"
	 viewBox="0 0 50 25" style="enable-background:new 0 0 50 25;" xml:space="preserve">
<style type="text/css">
	.st0{clip-path:url(#SVGID_2_);fill:#707070;}
</style>
<g>
	<g>
		<defs>
			<path id="SVGID_1_" d="M42.7,16.4c-0.4,1.2-1.2,2.2-2.6,2.5c-2.4,0.6-4.9,0.6-7.3-0.3c-1.1-0.4-2-1.2-2.7-2.1
				c-1.2-1.5-1.9-3.2-2.1-5.1c-0.3-1.9,0.4-3.2,2.2-3.7c3.3-1,6.8-1.3,10.3-0.6c1.9,0.4,2.7,1.4,2.9,3.3c0.1,0.4,0.1,1,0.1,1.4
				C43.5,13.4,43.3,14.9,42.7,16.4z M20.6,11.7c-0.3,1.8-1,3.4-2.2,4.9c-1.7,2.2-4.2,2.7-6.5,2.7c-1.3,0-2.2-0.1-3.1-0.3
				c-1.5-0.3-2.4-1.3-2.9-2.6c-0.7-2.1-1-4.3-0.6-6.5c0.2-1.5,1.2-2.4,3-2.8C10.5,6.6,12.8,6.8,15,7c1,0.1,1.9,0.3,2.8,0.5
				C20.1,8,21,9.3,20.6,11.7z M46.3,6.6c-0.8-0.1-1.5-0.3-2.3-0.4c-4.9-0.9-9.8-1-14.6,0.3c-3,0.8-6,0.9-9.1,0.1
				c-3.2-1-6.6-1.3-10-1.3c-1.5,0.1-3,0.1-4.4,0.3C4.7,5.8,3.6,6,2.4,6.2C2,6.3,1.8,6.4,2,6.9c0.1,0.6,0.2,1.3,0.3,1.9
				c0.1,0.3,0.1,0.5,0.5,0.6c0.5,0.1,0.8,0.4,0.8,1c0,1.3,0.2,2.7,0.4,4c0.6,3.3,2.3,5.1,5.4,5.6c1.2,0.3,2.5,0.2,3.8,0.1
				c5.1-0.4,8.5-4,9.5-8.8c0.3-1.2,0.5-1.5,1.5-1.6s1.5,0.2,1.9,1.3c0.6,1.6,1.3,3.1,2.1,4.7c1,1.9,2.4,3.3,4.5,3.9
				c2.2,0.6,4.5,0.9,6.8,0.5c2.3-0.3,3.8-1.7,4.5-3.9c0.1-0.4,0.3-0.9,0.4-1.3c0.3-1.3,0.4-2.8,0.9-4.2c0.1-0.4,0.3-0.9,0.6-1
				c0.7-0.1,0.7-0.6,0.8-1.2c0.1-0.5,0.1-1,0.2-1.5C46.8,6.8,46.7,6.6,46.3,6.6z"/>
		</defs>
		<clipPath id="SVGID_2_">
			<use xlink:href="#SVGID_1_"  style="overflow:visible;"/>
		</clipPath>
		<rect x="-3.2" y="0.3" class="st0" width="55" height="25"/>
	</g>
</g>
</svg>
