<?xml version="1.0" encoding="utf-8"?>
<!-- Generator: Adobe Illustrator 21.1.0, SVG Export Plug-In . SVG Version: 6.00 Build 0)  -->
<svg version="1.1" id="Layer_1" xmlns="http://www.w3.org/2000/svg" xmlns:xlink="http://www.w3.org/1999/xlink" x="0px" y="0px"
	 viewBox="0 0 30 30" style="enable-background:new 0 0 30 30;" xml:space="preserve">
<style type="text/css">
	.st0{fill:none;}
	.st1{clip-path:url(#SVGID_2_);fill:#FF6E17;}
	.st2{clip-path:url(#SVGID_4_);fill:#FFFFFF;}
</style>
<rect x="4" y="-3" class="st0" width="35" height="35"/>
<g>
	<g>
		<defs>
			<circle id="SVGID_1_" cx="15" cy="15" r="15"/>
		</defs>
		<clipPath id="SVGID_2_">
			<use xlink:href="#SVGID_1_"  style="overflow:visible;"/>
		</clipPath>
		<rect x="-7.5" y="-7.5" class="st1" width="45" height="45"/>
	</g>
	<g>
		<defs>
			<path id="SVGID_3_" d="M12.5,20.9c0-0.2,0-0.4,0.1-0.5s0.2-0.3,0.3-0.4s0.3-0.2,0.4-0.3c0.2-0.1,0.4-0.1,0.5-0.1
				c0.2,0,0.4,0,0.5,0.1s0.3,0.2,0.4,0.3c0.1,0.1,0.2,0.3,0.3,0.4c0.1,0.2,0.1,0.3,0.1,0.5c0,0.2,0,0.4-0.1,0.5
				c-0.1,0.2-0.2,0.3-0.3,0.4c-0.1,0.1-0.3,0.2-0.4,0.3s-0.3,0.1-0.5,0.1c-0.2,0-0.4,0-0.5-0.1c-0.2-0.1-0.3-0.2-0.4-0.3
				c-0.1-0.1-0.2-0.3-0.3-0.4C12.5,21.3,12.5,21.1,12.5,20.9z M10.8,10.2c0.2-0.2,0.4-0.4,0.7-0.5c0.2-0.2,0.5-0.3,0.8-0.4
				c0.3-0.1,0.6-0.2,0.9-0.3c0.3-0.1,0.7-0.1,1.1-0.1c0.5,0,1,0.1,1.4,0.2c0.4,0.1,0.8,0.4,1.1,0.6s0.6,0.6,0.7,1
				c0.2,0.4,0.3,0.8,0.3,1.3c0,0.5-0.1,0.9-0.2,1.2c-0.1,0.3-0.3,0.6-0.5,0.9c-0.2,0.2-0.4,0.5-0.7,0.6c-0.2,0.2-0.5,0.4-0.7,0.5
				c-0.2,0.2-0.4,0.3-0.6,0.5c-0.2,0.2-0.2,0.3-0.3,0.5l-0.2,1.3h-1.5L13,16c0,0,0-0.1,0-0.1v-0.1c0-0.3,0.1-0.5,0.2-0.7
				c0.1-0.2,0.3-0.4,0.5-0.6c0.2-0.2,0.4-0.3,0.6-0.5c0.2-0.2,0.4-0.3,0.6-0.5c0.2-0.2,0.4-0.4,0.5-0.7c0.1-0.2,0.2-0.5,0.2-0.9
				c0-0.2,0-0.4-0.1-0.6c-0.1-0.2-0.2-0.3-0.3-0.4c-0.1-0.1-0.3-0.2-0.5-0.3c-0.2-0.1-0.4-0.1-0.7-0.1c-0.3,0-0.6,0-0.9,0.1
				c-0.2,0.1-0.4,0.2-0.6,0.3c-0.2,0.1-0.3,0.2-0.4,0.3c-0.1,0.1-0.2,0.1-0.3,0.1c-0.2,0-0.4-0.1-0.5-0.3L10.8,10.2z"/>
		</defs>
		<clipPath id="SVGID_4_">
			<use xlink:href="#SVGID_3_"  style="overflow:visible;"/>
		</clipPath>
		<rect x="3.3" y="1.3" class="st2" width="22" height="28.5"/>
	</g>
</g>
</svg>
