<?xml version="1.0" encoding="utf-8"?>
<!-- Generator: Adobe Illustrator 21.1.0, SVG Export Plug-In . SVG Version: 6.00 Build 0)  -->
<svg version="1.1" id="Layer_1" xmlns="http://www.w3.org/2000/svg" xmlns:xlink="http://www.w3.org/1999/xlink" x="0px" y="0px"
	 viewBox="0 0 30 30" style="enable-background:new 0 0 30 30;" xml:space="preserve">
<style type="text/css">
	.st0{clip-path:url(#SVGID_2_);}
	.st1{clip-path:url(#SVGID_4_);fill:#FF6E17;}
</style>
<g>
	<defs>
		<path id="SVGID_1_" d="M9.3,9L7,2.2H0.9C0.4,2.2,0,2.6,0,3.1C0,3.6,0.4,4,0.9,4h4.7L7.5,9h0l1.9,10.2c0,1.9,1.7,3.4,3.8,3.4h10.3
			c2.1,0,3.8-1.5,3.8-3.4L30,9H9.3z M25.3,19.2c0,0.9-0.8,1.7-1.9,1.7H13.1c-1,0-1.9-0.8-1.9-1.7l-1.6-8.5h18L25.3,19.2z M13.1,24.4
			c-1,0-1.9,0.8-1.9,1.7s0.8,1.7,1.9,1.7S15,27,15,26S14.2,24.4,13.1,24.4z M22.5,24.4c-1,0-1.9,0.8-1.9,1.7s0.8,1.7,1.9,1.7
			s1.9-0.8,1.9-1.7S23.5,24.4,22.5,24.4z"/>
	</defs>
	<clipPath id="SVGID_2_">
		<use xlink:href="#SVGID_1_"  style="overflow:visible;"/>
	</clipPath>
	<g class="st0">
		<defs>
			<rect id="SVGID_3_" y="0.2" width="30" height="30"/>
		</defs>
		<clipPath id="SVGID_4_">
			<use xlink:href="#SVGID_3_"  style="overflow:visible;"/>
		</clipPath>
		<rect x="-5" y="-2.8" class="st1" width="40" height="35.5"/>
	</g>
</g>
</svg>
