<?xml version="1.0" encoding="utf-8"?>
<!-- Generator: Adobe Illustrator 21.1.0, SVG Export Plug-In . SVG Version: 6.00 Build 0)  -->
<svg version="1.1" id="Layer_1" xmlns="http://www.w3.org/2000/svg" xmlns:xlink="http://www.w3.org/1999/xlink" x="0px" y="0px"
	 viewBox="0 0 30 30" style="enable-background:new 0 0 30 30;" xml:space="preserve">
<style type="text/css">
	.st0{clip-path:url(#SVGID_2_);fill:#707070;}
</style>
<g>
	<defs>
		<path id="SVGID_1_" d="M4,5.6c1.3-1.3,3-2,4.9-2s3.6,0.7,4.9,2l0.5,0.5c0.6,0.6,1.5,0.6,2,0l0.5-0.5c1.3-1.3,3-2,4.9-2
			c1.8,0,3.6,0.7,4.9,2c1.3,1.3,2,3,2,4.9c0,1.8-0.7,3.6-2,4.9L15.3,26.6L4,15.4c-1.3-1.3-2-3-2-4.9C2,8.6,2.7,6.9,4,5.6z
			 M13.2,27.7c0.5,0.5,1.1,0.7,1.8,0.7s1.3-0.3,1.8-0.7l10.5-10.5c1.7-1.7,2.7-4,2.7-6.4c0-2.4-0.9-4.7-2.7-6.4
			c-1.7-1.7-4-2.7-6.4-2.7c-2.2,0-4.3,0.8-5.9,2.2c-1.7-1.4-3.7-2.2-5.9-2.2c-2.4,0-4.7,0.9-6.4,2.7S0,8.3,0,10.7s1,4.7,2.7,6.4
			L13.2,27.7z"/>
	</defs>
	<clipPath id="SVGID_2_">
		<use xlink:href="#SVGID_1_"  style="overflow:visible;"/>
	</clipPath>
	<rect x="-5" y="-3.4" class="st0" width="40" height="36.8"/>
</g>
</svg>
