<?xml version="1.0" encoding="utf-8"?>
<!-- Generator: Adobe Illustrator 21.1.0, SVG Export Plug-In . SVG Version: 6.00 Build 0)  -->
<svg version="1.1" id="Layer_1" xmlns="http://www.w3.org/2000/svg" xmlns:xlink="http://www.w3.org/1999/xlink" x="0px" y="0px"
	 viewBox="0 0 50 24.9" style="enable-background:new 0 0 50 24.9;" xml:space="preserve">
<style type="text/css">
	.st0{clip-path:url(#SVGID_2_);fill:#99CA3E;}
	.st1{clip-path:url(#SVGID_4_);fill:#99CA3E;}
	.st2{clip-path:url(#SVGID_6_);fill:#4A4A4A;}
</style>
<g>
	<g>
		<g>
			<defs>
				<path id="SVGID_1_" d="M21.1,11.4c-0.3,1.8-1,3.4-2.2,4.9c-1.7,2.2-4.2,2.7-6.5,2.7c-1.3,0-2.2-0.1-3.1-0.3
					c-1.5-0.3-2.4-1.3-2.9-2.6c-0.7-2.1-1-4.3-0.6-6.5C6,8.1,7,7.2,8.8,6.8c2.2-0.5,4.5-0.3,6.7-0.1c1,0.1,1.9,0.3,2.8,0.5
					C20.6,7.7,21.5,9,21.1,11.4z"/>
			</defs>
			<clipPath id="SVGID_2_">
				<use xlink:href="#SVGID_1_"  style="overflow:visible;"/>
			</clipPath>
			<rect x="0.6" y="1.4" class="st0" width="25.6" height="22.6"/>
		</g>
	</g>
	<g>
		<g>
			<defs>
				<path id="SVGID_3_" d="M43.2,16.1c-0.4,1.2-1.2,2.2-2.6,2.5c-2.4,0.6-4.9,0.6-7.3-0.3c-1.1-0.4-2-1.2-2.7-2.1
					c-1.2-1.5-1.9-3.2-2.1-5.1c-0.3-1.9,0.4-3.2,2.2-3.7c3.3-1,6.8-1.3,10.3-0.6c1.9,0.4,2.7,1.4,2.9,3.3c0.1,0.4,0.1,1,0.1,1.4
					C44,13.1,43.8,14.6,43.2,16.1z"/>
			</defs>
			<clipPath id="SVGID_4_">
				<use xlink:href="#SVGID_3_"  style="overflow:visible;"/>
			</clipPath>
			<rect x="23.6" y="1.3" class="st1" width="25.6" height="22.7"/>
		</g>
	</g>
	<g>
		<g>
			<defs>
				<path id="SVGID_5_" d="M43.2,16.1c-0.4,1.2-1.2,2.2-2.6,2.5c-2.4,0.6-4.9,0.6-7.3-0.3c-1.1-0.4-2-1.2-2.7-2.1
					c-1.2-1.5-1.9-3.2-2.1-5.1c-0.3-1.9,0.4-3.2,2.2-3.7c3.3-1,6.8-1.3,10.3-0.6c1.9,0.4,2.7,1.4,2.9,3.3c0.1,0.4,0.1,1,0.1,1.4
					C44,13.1,43.8,14.6,43.2,16.1z M21.1,11.4c-0.3,1.8-1,3.4-2.2,4.9c-1.7,2.2-4.2,2.7-6.5,2.7c-1.3,0-2.2-0.1-3.1-0.3
					c-1.5-0.3-2.4-1.3-2.9-2.6c-0.7-2.1-1-4.3-0.6-6.5C6,8.1,7,7.2,8.8,6.8c2.2-0.5,4.5-0.3,6.7-0.1c1,0.1,1.9,0.3,2.8,0.5
					C20.6,7.7,21.5,9,21.1,11.4z M46.8,6.3C46,6.2,45.3,6,44.5,5.9c-4.9-0.9-9.8-1-14.6,0.3c-3,0.8-6,0.9-9.1,0.1
					c-3.2-1-6.6-1.3-10-1.3c-1.5,0.1-3,0.1-4.4,0.3C5.2,5.5,4.1,5.7,2.9,5.9C2.5,6,2.3,6.1,2.5,6.6c0.1,0.6,0.2,1.3,0.3,1.9
					C2.9,8.8,2.9,9,3.3,9.1c0.5,0.1,0.8,0.4,0.8,1c0,1.3,0.2,2.7,0.4,4c0.6,3.3,2.3,5.1,5.4,5.6c1.2,0.3,2.5,0.2,3.8,0.1
					c5.1-0.4,8.5-4,9.5-8.8c0.3-1.2,0.5-1.5,1.5-1.6s1.5,0.2,1.9,1.3c0.6,1.6,1.3,3.1,2.1,4.7c1,1.9,2.4,3.3,4.5,3.9
					c2.2,0.6,4.5,0.9,6.8,0.5c2.3-0.3,3.8-1.7,4.5-3.9c0.1-0.4,0.3-0.9,0.4-1.3c0.3-1.3,0.4-2.8,0.9-4.2c0.1-0.4,0.3-0.9,0.6-1
					c0.7-0.1,0.7-0.6,0.8-1.2c0.1-0.5,0.1-1,0.2-1.5C47.3,6.5,47.2,6.3,46.8,6.3z"/>
			</defs>
			<clipPath id="SVGID_6_">
				<use xlink:href="#SVGID_5_"  style="overflow:visible;"/>
			</clipPath>
			<rect x="-2.7" class="st2" width="55" height="25"/>
		</g>
	</g>
</g>
</svg>
