<?xml version="1.0" encoding="utf-8"?>
<!-- Generator: Adobe Illustrator 21.1.0, SVG Export Plug-In . SVG Version: 6.00 Build 0)  -->
<svg version="1.1" id="Layer_1" xmlns="http://www.w3.org/2000/svg" xmlns:xlink="http://www.w3.org/1999/xlink" x="0px" y="0px"
	 viewBox="0 0 30 30" style="enable-background:new 0 0 30 30;" xml:space="preserve">
<style type="text/css">
	.st0{clip-path:url(#SVGID_2_);}
	.st1{clip-path:url(#SVGID_4_);fill:#FF6E17;}
	.st2{clip-path:url(#SVGID_6_);}
	.st3{clip-path:url(#SVGID_8_);fill:#FFFFFF;}
	.st4{clip-path:url(#SVGID_10_);}
	.st5{clip-path:url(#SVGID_12_);fill:#F0F0F0;}
</style>
<g>
	<g>
		<defs>
			<path id="SVGID_1_" d="M4,0h22c2.2,0,4,1.8,4,4v22c0,2.2-1.8,4-4,4H4c-2.2,0-4-1.8-4-4V4C0,1.8,1.8,0,4,0z"/>
		</defs>
		<clipPath id="SVGID_2_">
			<use xlink:href="#SVGID_1_"  style="overflow:visible;"/>
		</clipPath>
		<g class="st0">
			<defs>
				<rect id="SVGID_3_" x="-554" y="-1133" width="1440" height="2146"/>
			</defs>
			<clipPath id="SVGID_4_">
				<use xlink:href="#SVGID_3_"  style="overflow:visible;"/>
			</clipPath>
			<rect x="-5" y="-5" class="st1" width="40" height="40"/>
		</g>
	</g>
	<g>
		<defs>
			<polygon id="SVGID_5_" points="7.4,13.2 7.4,15.4 9.5,15.4 9.5,16.4 7.4,16.4 7.4,18.6 6.3,18.6 6.3,16.4 4.2,16.4 4.2,15.4 
				6.3,15.4 6.3,13.2 			"/>
		</defs>
		<clipPath id="SVGID_6_">
			<use xlink:href="#SVGID_5_"  style="overflow:visible;"/>
		</clipPath>
		<g class="st2">
			<defs>
				<rect id="SVGID_7_" x="-554" y="-1133" width="1440" height="2146"/>
			</defs>
			<clipPath id="SVGID_8_">
				<use xlink:href="#SVGID_7_"  style="overflow:visible;"/>
			</clipPath>
			<rect x="-0.8" y="8.2" class="st3" width="15.3" height="15.4"/>
		</g>
	</g>
	<g>
		<defs>
			<path id="SVGID_9_" d="M12.8,11.4l-1.4-4.2H7.8c-0.3,0-0.6,0.2-0.6,0.5c0,0.3,0.3,0.5,0.6,0.5h2.8l1.1,3.1h0l1.1,6.2
				c0,1.1,1,2.1,2.2,2.1h6.2c1.2,0,2.2-0.9,2.2-2.1l1.7-6.2H12.8z M22.4,17.6c0,0.6-0.5,1-1.1,1h-6.2c-0.6,0-1.1-0.5-1.1-1L13,12.4
				h10.8L22.4,17.6z M15.1,20.7c-0.6,0-1.1,0.5-1.1,1s0.5,1,1.1,1c0.6,0,1.1-0.5,1.1-1S15.7,20.7,15.1,20.7z M20.7,20.7
				c-0.6,0-1.1,0.5-1.1,1s0.5,1,1.1,1c0.6,0,1.1-0.5,1.1-1S21.3,20.7,20.7,20.7z"/>
		</defs>
		<clipPath id="SVGID_10_">
			<use xlink:href="#SVGID_9_"  style="overflow:visible;"/>
		</clipPath>
		<g class="st4">
			<defs>
				<rect id="SVGID_11_" x="7.2" y="6" width="18" height="18"/>
			</defs>
			<clipPath id="SVGID_12_">
				<use xlink:href="#SVGID_11_"  style="overflow:visible;"/>
			</clipPath>
			<rect x="2.2" y="2.2" class="st5" width="28" height="25.6"/>
		</g>
	</g>
</g>
</svg>
