<?xml version="1.0" encoding="utf-8"?>
<!-- Generator: Adobe Illustrator 21.1.0, SVG Export Plug-In . SVG Version: 6.00 Build 0)  -->
<svg version="1.1" id="Layer_1" xmlns="http://www.w3.org/2000/svg" xmlns:xlink="http://www.w3.org/1999/xlink" x="0px" y="0px"
	 viewBox="0 0 150 50" style="enable-background:new 0 0 150 50;" xml:space="preserve">
<style type="text/css">
	.st0{clip-path:url(#SVGID_2_);}
	.st1{clip-path:url(#SVGID_4_);fill:#FF6E17;}
	.st2{fill:none;}
	.st3{clip-path:url(#SVGID_6_);}
	.st4{clip-path:url(#SVGID_8_);fill:#FFFFFF;}
</style>
<g>
	<defs>
		<rect id="SVGID_1_" width="150" height="50"/>
	</defs>
	<clipPath id="SVGID_2_">
		<use xlink:href="#SVGID_1_"  style="overflow:visible;"/>
	</clipPath>
	<g class="st0">
		<defs>
			<rect id="SVGID_3_" x="-570" y="-528" width="1440" height="2353"/>
		</defs>
		<clipPath id="SVGID_4_">
			<use xlink:href="#SVGID_3_"  style="overflow:visible;"/>
		</clipPath>
		<rect x="-5" y="-5" class="st1" width="160" height="60"/>
	</g>
</g>
<rect x="64" y="7" class="st2" width="35" height="35"/>
<g>
	<defs>
		<path id="SVGID_5_" d="M84.4,17.1H82l-0.8-1.6c-0.5-0.9-0.7-1.6-1.6-1.6h-9.4c-0.9,0-1.1,0.7-1.6,1.6L68,17.1h-2.3
			c-1.7,0-3.1,1.4-3.1,3.1v12.6c0,1.7,1.4,3.1,3.1,3.1h18.8c1.7,0,3.1-1.4,3.1-3.1V20.3C87.5,18.6,86.1,17.1,84.4,17.1z M75,32.9
			c-3.5,0-6.3-2.8-6.3-6.3c0-3.5,2.8-6.3,6.3-6.3c3.5,0,6.3,2.8,6.3,6.3C81.3,30,78.5,32.9,75,32.9z M75,21.9
			c-2.6,0-4.7,2.1-4.7,4.7c0,2.6,2.1,4.7,4.7,4.7c2.6,0,4.7-2.1,4.7-4.7C79.7,24,77.6,21.9,75,21.9z"/>
	</defs>
	<clipPath id="SVGID_6_">
		<use xlink:href="#SVGID_5_"  style="overflow:visible;"/>
	</clipPath>
	<g class="st3">
		<defs>
			<rect id="SVGID_7_" x="-569.5" y="-531" width="1440" height="2365.9"/>
		</defs>
		<clipPath id="SVGID_8_">
			<use xlink:href="#SVGID_7_"  style="overflow:visible;"/>
		</clipPath>
		<rect x="57.5" y="9" class="st4" width="35" height="32.1"/>
	</g>
</g>
</svg>
