<?xml version="1.0" encoding="utf-8"?>
<!-- Generator: Adobe Illustrator 21.1.0, SVG Export Plug-In . SVG Version: 6.00 Build 0)  -->
<svg version="1.1" id="Layer_1" xmlns="http://www.w3.org/2000/svg" xmlns:xlink="http://www.w3.org/1999/xlink" x="0px" y="0px"
	 viewBox="0 0 30 30" style="enable-background:new 0 0 30 30;" xml:space="preserve">
<style type="text/css">
	.st0{fill:none;}
	.st1{clip-path:url(#SVGID_2_);}
	.st2{clip-path:url(#SVGID_4_);fill:#FFFFFF;}
</style>
<rect x="-60" y="-10" class="st0" width="150" height="50"/>
<g>
	<defs>
		<path id="SVGID_1_" d="M24.4,7.1H22l-0.8-1.6c-0.5-0.9-0.7-1.6-1.6-1.6h-9.4c-0.9,0-1.1,0.7-1.6,1.6L8,7.1H5.7
			c-1.7,0-3.1,1.4-3.1,3.1v12.6c0,1.7,1.4,3.1,3.1,3.1h18.8c1.7,0,3.1-1.4,3.1-3.1V10.3C27.5,8.6,26.1,7.1,24.4,7.1z M15,22.9
			c-3.5,0-6.3-2.8-6.3-6.3s2.8-6.3,6.3-6.3s6.3,2.8,6.3,6.3C21.3,20,18.5,22.9,15,22.9z M15,11.9c-2.6,0-4.7,2.1-4.7,4.7
			s2.1,4.7,4.7,4.7s4.7-2.1,4.7-4.7S17.6,11.9,15,11.9z"/>
	</defs>
	<clipPath id="SVGID_2_">
		<use xlink:href="#SVGID_1_"  style="overflow:visible;"/>
	</clipPath>
	<g class="st1">
		<defs>
			<rect id="SVGID_3_" x="-629.5" y="-541" width="1440" height="2365.9"/>
		</defs>
		<clipPath id="SVGID_4_">
			<use xlink:href="#SVGID_3_"  style="overflow:visible;"/>
		</clipPath>
		<rect x="-2.5" y="-1" class="st2" width="35" height="32.1"/>
	</g>
</g>
</svg>
