<svg xmlns="http://www.w3.org/2000/svg" width="25" height="11" viewBox="0 0 25 11">
    <path fill="#4A4A4A" fill-rule="nonzero" d="M0 1.3v8.733c.001.288.198.521.441.521h23.6c.244 0 .44-.235.44-.521V1.3c0-.288-.196-.523-.44-.523H.441C.198.777.001 1.01 0 1.3zm23.6 8.21H.881V1.821h3.46v1.222c0 .289.197.522.44.524.243 0 .44-.235.441-.524V1.822H7.38v2.966c0 .29.198.523.441.524.243-.002.44-.235.44-.524V1.822h2.07v1.21c0 .29.198.523.441.523.244 0 .44-.234.44-.522v-1.21h2.067v2.965a.555.555 0 0 0 .212.48c.14.1.316.1.456 0 .14-.101.221-.286.211-.48V1.822h2.066v1.21c0 .29.198.523.441.523s.44-.234.44-.522v-1.21h2.068v2.965c0 .289.197.522.44.524.244 0 .44-.235.441-.524V1.822h3.544V9.51h.002z"/>
</svg>
