<svg xmlns="http://www.w3.org/2000/svg" width="13" height="13" viewBox="0 0 13 13">
    <g fill="#333" fill-rule="evenodd">
        <path d="M12.594 8.938a.406.406 0 0 0-.406.406v2.27L9.224 8.65a.408.408 0 0 0-.575.575l2.963 2.963h-2.27a.406.406 0 0 0 0 .812H13V9.344a.406.406 0 0 0-.406-.406M3.775 8.65L.813 11.613V9.344a.406.406 0 1 0-.813 0V13h3.657a.406.406 0 0 0 0-.812h-2.27L4.35 9.225a.407.407 0 0 0-.575-.575M1.387.813h2.27a.406.406 0 0 0 0-.813H0V3.656a.406.406 0 0 0 .813 0v-2.27L3.775 4.35a.407.407 0 0 0 .574-.575L1.387.813zM12.594 0h-3.25a.406.406 0 0 0 0 .813h2.27L8.65 3.775a.408.408 0 0 0 .575.575l2.963-2.963v2.27a.406.406 0 0 0 .812 0V0h-.406z"/>
    </g>
</svg>
