<?xml version="1.0" encoding="utf-8"?>
<!-- Generator: Adobe Illustrator 21.1.0, SVG Export Plug-In . SVG Version: 6.00 Build 0)  -->
<svg version="1.1" id="Layer_1" xmlns="http://www.w3.org/2000/svg" xmlns:xlink="http://www.w3.org/1999/xlink" x="0px" y="0px"
	 viewBox="0 0 100 52" style="enable-background:new 0 0 100 52;" xml:space="preserve">
<style type="text/css">
	.st0{fill:#353534;}
	.st1{fill:url(#SVGID_1_);}
	.st2{fill:url(#SVGID_2_);}
	.st3{fill:url(#SVGID_3_);}
	.st4{fill:url(#SVGID_4_);}
	.st5{fill:url(#SVGID_5_);}
	.st6{fill:url(#SVGID_6_);}
	.st7{fill:url(#SVGID_7_);}
	.st8{fill:url(#SVGID_8_);}
	.st9{fill:url(#SVGID_9_);}
	.st10{fill:url(#SVGID_10_);}
	.st11{fill:url(#SVGID_11_);}
	.st12{fill:url(#SVGID_12_);}
	.st13{fill:url(#SVGID_13_);}
	.st14{fill:url(#SVGID_14_);}
	.st15{fill:url(#SVGID_15_);}
	.st16{fill:url(#SVGID_16_);}
	.st17{fill:url(#SVGID_17_);}
	.st18{fill:url(#SVGID_18_);}
	.st19{fill:url(#SVGID_19_);}
	.st20{fill:url(#SVGID_20_);}
	.st21{fill:url(#SVGID_21_);}
	.st22{fill:url(#SVGID_22_);}
	.st23{fill:url(#SVGID_23_);}
	.st24{fill:url(#SVGID_24_);}
	.st25{fill:url(#SVGID_25_);}
	.st26{fill:url(#SVGID_26_);}
</style>
<g id="Layer_3">
</g>
<g>
	<g>
		<g>
			<path class="st0" d="M53.8,18c1.7,1,3,2.3,3.9,4c0.9,1.7,1.4,3.5,1.4,5.6c0,2.1-0.4,3.9-1.3,5.6c-0.9,1.7-2.1,3-3.6,3.9
				c-1.5,0.9-3.3,1.4-5.2,1.4c-1.5,0-3-0.3-4.3-0.9c-1.3-0.6-2.4-1.5-3.4-2.6v6.1c0,0.6-0.2,1.1-0.6,1.5C40.4,42.8,40,43,39.4,43
				c-0.6,0-1.1-0.2-1.4-0.6c-0.4-0.4-0.6-0.9-0.6-1.5V27.5c0-2.1,0.5-3.9,1.4-5.6c1-1.7,2.3-3,3.9-4c1.6-1,3.5-1.4,5.5-1.4
				C50.2,16.5,52.1,17,53.8,18z M51.8,34c1.1-0.6,1.9-1.5,2.5-2.6c0.6-1.1,0.9-2.4,0.9-3.8c0-1.4-0.3-2.7-0.9-3.8
				c-0.6-1.1-1.5-2-2.5-2.7c-1.1-0.6-2.3-1-3.6-1c-1.3,0-2.5,0.3-3.6,1c-1.1,0.6-1.9,1.5-2.5,2.7c-0.6,1.1-0.9,2.4-0.9,3.8
				c0,1.4,0.3,2.7,0.9,3.8c0.6,1.1,1.4,2,2.5,2.6c1.1,0.6,2.3,1,3.6,1C49.5,34.9,50.7,34.6,51.8,34z"/>
			<path class="st0" d="M72,34.9c0.3,0.4,0.5,0.8,0.5,1.4c0,0.6-0.2,1.1-0.7,1.4c-0.4,0.4-1,0.6-1.7,0.6h-0.7c-1.3,0-2.5-0.3-3.5-1
				c-1.1-0.7-1.9-1.6-2.5-2.7c-0.6-1.2-0.9-2.5-0.9-3.9v-9.8h-1.8c-0.6,0-1-0.2-1.3-0.5c-0.3-0.3-0.5-0.7-0.5-1.2
				c0-0.5,0.2-0.9,0.5-1.3c0.3-0.3,0.8-0.5,1.3-0.5h1.8v-3c0-0.6,0.2-1.1,0.6-1.4c0.4-0.4,0.8-0.6,1.4-0.6c0.6,0,1.1,0.2,1.4,0.6
				c0.4,0.4,0.6,0.8,0.6,1.4v3h3.4c0.6,0,1,0.2,1.3,0.5c0.3,0.3,0.5,0.7,0.5,1.3c0,0.5-0.2,0.9-0.5,1.2c-0.3,0.3-0.8,0.5-1.3,0.5
				h-3.4v9.8c0,1.1,0.3,1.9,0.9,2.6c0.6,0.7,1.3,1.1,2.1,1.1h1.3C71.3,34.4,71.7,34.6,72,34.9z"/>
			<path class="st0" d="M77.7,10.9c0.5,0.5,0.8,1.1,0.8,1.8s-0.3,1.3-0.8,1.8c-0.5,0.5-1.1,0.8-1.8,0.8c-0.7,0-1.3-0.3-1.8-0.8
				c-0.5-0.5-0.8-1.1-0.8-1.8s0.3-1.3,0.8-1.8c0.5-0.5,1.1-0.8,1.8-0.8C76.5,10.1,77.1,10.3,77.7,10.9z M74.4,17.3
				c0.4-0.4,0.9-0.6,1.4-0.6c0.6,0,1.1,0.2,1.5,0.6c0.4,0.4,0.6,0.9,0.6,1.5v17.6c0,0.6-0.2,1.1-0.6,1.4c-0.4,0.4-0.9,0.6-1.5,0.6
				c-0.6,0-1.1-0.2-1.4-0.6c-0.4-0.4-0.6-0.9-0.6-1.4V18.7C73.8,18.1,74,17.6,74.4,17.3z"/>
			<path class="st0" d="M98.1,20.1c0.3,0.3,0.4,0.6,0.4,1c0,0.6-0.3,1.1-0.9,1.5c-0.3,0.2-0.6,0.3-0.9,0.3c-0.6,0-1.1-0.2-1.5-0.7
				c-0.7-0.7-1.4-1.2-2.2-1.6c-0.8-0.3-1.7-0.5-2.7-0.5c-2,0-3.7,0.7-4.9,2c-1.3,1.4-1.9,3.2-1.9,5.4c0,1.4,0.3,2.7,0.9,3.8
				c0.6,1.1,1.4,2,2.5,2.6c1.1,0.6,2.3,0.9,3.7,0.9c1.8,0,3.2-0.5,4.3-1.4c0.5-0.4,1-0.6,1.5-0.6c0.4,0,0.7,0.1,1,0.4
				c0.5,0.4,0.8,0.9,0.8,1.4c0,0.4-0.2,0.8-0.5,1.1c-1.9,1.8-4.3,2.6-7.1,2.6c-2.1,0-4-0.5-5.6-1.4c-1.7-0.9-3-2.3-3.9-3.9
				c-0.9-1.7-1.4-3.5-1.4-5.6c0-2.1,0.5-4,1.4-5.7c0.9-1.7,2.2-3,3.8-3.9c1.6-0.9,3.5-1.4,5.5-1.4C93.5,16.5,96.1,17.7,98.1,20.1z"
				/>
			<path class="st0" d="M5.9,10.9c0.5,0.5,0.8,1.1,0.8,1.8S6.4,14,5.9,14.5c-0.5,0.5-1.1,0.8-1.8,0.8c-0.7,0-1.3-0.3-1.8-0.8
				c-0.5-0.5-0.8-1.1-0.8-1.8s0.3-1.3,0.8-1.8s1.1-0.8,1.8-0.8C4.8,10.1,5.4,10.3,5.9,10.9z M2.6,17.3c0.4-0.4,0.9-0.6,1.4-0.6
				c0.6,0,1.1,0.2,1.5,0.6c0.4,0.4,0.6,0.9,0.6,1.5v17.6c0,0.6-0.2,1.1-0.6,1.4c-0.4,0.4-0.9,0.6-1.5,0.6c-0.6,0-1.1-0.2-1.4-0.6
				c-0.4-0.4-0.6-0.9-0.6-1.4V18.7C2.1,18.1,2.3,17.6,2.6,17.3z"/>
		</g>
		<g>
			
				<linearGradient id="SVGID_1_" gradientUnits="userSpaceOnUse" x1="67.3788" y1="66.4527" x2="102.7576" y2="66.4527" gradientTransform="matrix(0.9661 -0.2583 0.2583 0.9661 -71.5058 -21.2836)">
				<stop  offset="0" style="stop-color:#ECC45E"/>
				<stop  offset="0.23" style="stop-color:#A67029"/>
				<stop  offset="0.33" style="stop-color:#E1B655"/>
				<stop  offset="0.46" style="stop-color:#F7F0B6"/>
				<stop  offset="0.58" style="stop-color:#E1B655"/>
				<stop  offset="0.69" style="stop-color:#8E5E25"/>
				<stop  offset="1" style="stop-color:#E1B655"/>
			</linearGradient>
			<path class="st1" d="M27,38.1c-4.6,1.2-9.4,0-12.3-3.1c-1.4-1.3-2.6-4-2.9-5.4c-0.4-2.5,0-5.3,1.3-7.6c1.4-2.5,3.6-4.2,6.3-4.9
				c2.1-0.6,4.4-0.5,6.9,0.2c-3-1.4-5-0.9-5.1-0.9l-0.1-0.1l-0.2,0l-0.3-0.1L20.6,16l-1.7-3.7l0-0.2l0-0.2l0.1-0.3l0.2-0.1l0.2-0.1
				l0,0l0,0c3.4-0.3,6.9,0.7,9.9,2.6l6.2-9.9l0,0l0,0l0.1-0.1c1.1-1.5,2.1-2.7,3.2-3c0.6-0.2,1.2,0,1.7,0.4c1.8,1.3,0,3.9-1.1,5.6
				l0,0l0,0.1l-4.5,5.3l1.3-0.9l0.1,0l0,0c0.6-0.3,1.1-0.5,1.6-0.7c1.4-0.4,2,0.3,2.3,1c0.8,1.7-0.8,2.6-2,3.4l0,0l0,0.1l-5.4,2.2
				c1.3,1.6,2.2,3.4,2.8,5.4c0.2,0.6,0.3,1.2,0.3,1.9C36.8,30.7,33,36.5,27,38.1z M15,23.9c-0.7,1.6-0.8,2.9-0.3,4.8
				c0.6,2.4,2.1,4.6,4.3,5.8c2.1,1.2,4.5,1.6,6.8,1l0,0c4.8-1.3,7.6-6.2,6.3-11c-0.7-2.7-2.5-5-4.1-6.3l0,0.1l0.3,3.4l-0.1,0.2
				l-0.2,0.3l-0.4,0.1l-0.3-0.1l-0.2-0.1c-1.8-2-4.9-2.9-7.6-2.2l-0.1,0C16.8,20.7,15.5,23,15,23.9L15,23.9z"/>
		</g>
	</g>
	<g>
		<linearGradient id="SVGID_2_" gradientUnits="userSpaceOnUse" x1="-5.0607" y1="49.1502" x2="118.2289" y2="49.1502">
			<stop  offset="0" style="stop-color:#ECC45E"/>
			<stop  offset="0.23" style="stop-color:#A67029"/>
			<stop  offset="0.33" style="stop-color:#E1B655"/>
			<stop  offset="0.46" style="stop-color:#F7F0B6"/>
			<stop  offset="0.58" style="stop-color:#E1B655"/>
			<stop  offset="0.69" style="stop-color:#8E5E25"/>
			<stop  offset="1" style="stop-color:#E1B655"/>
		</linearGradient>
		<path class="st2" d="M4.5,47.8H3.3v3.1H2.9v-3.1H1.7v-0.4h2.7V47.8z"/>
		<linearGradient id="SVGID_3_" gradientUnits="userSpaceOnUse" x1="-5.0607" y1="49.1502" x2="118.2289" y2="49.1502">
			<stop  offset="0" style="stop-color:#ECC45E"/>
			<stop  offset="0.23" style="stop-color:#A67029"/>
			<stop  offset="0.33" style="stop-color:#E1B655"/>
			<stop  offset="0.46" style="stop-color:#F7F0B6"/>
			<stop  offset="0.58" style="stop-color:#E1B655"/>
			<stop  offset="0.69" style="stop-color:#8E5E25"/>
			<stop  offset="1" style="stop-color:#E1B655"/>
		</linearGradient>
		<path class="st3" d="M5.5,47.4h0.4v1.5h1.9v-1.5h0.4v3.5H7.8v-1.6H5.9v1.6H5.5V47.4z"/>
		<linearGradient id="SVGID_4_" gradientUnits="userSpaceOnUse" x1="-5.0607" y1="49.1502" x2="118.2289" y2="49.1502">
			<stop  offset="0" style="stop-color:#ECC45E"/>
			<stop  offset="0.23" style="stop-color:#A67029"/>
			<stop  offset="0.33" style="stop-color:#E1B655"/>
			<stop  offset="0.46" style="stop-color:#F7F0B6"/>
			<stop  offset="0.58" style="stop-color:#E1B655"/>
			<stop  offset="0.69" style="stop-color:#8E5E25"/>
			<stop  offset="1" style="stop-color:#E1B655"/>
		</linearGradient>
		<path class="st4" d="M9.5,47.4h2.2v0.4H10v1.1h1.7v0.4H10v1.3h1.9v0.4H9.5V47.4z"/>
		<linearGradient id="SVGID_5_" gradientUnits="userSpaceOnUse" x1="-5.0607" y1="49.1502" x2="118.2289" y2="49.1502">
			<stop  offset="0" style="stop-color:#ECC45E"/>
			<stop  offset="0.23" style="stop-color:#A67029"/>
			<stop  offset="0.33" style="stop-color:#E1B655"/>
			<stop  offset="0.46" style="stop-color:#F7F0B6"/>
			<stop  offset="0.58" style="stop-color:#E1B655"/>
			<stop  offset="0.69" style="stop-color:#8E5E25"/>
			<stop  offset="1" style="stop-color:#E1B655"/>
		</linearGradient>
		<path class="st5" d="M14.9,47.4h2.2v0.4h-1.8v1.1H17v0.4h-1.7v1.3h1.9v0.4h-2.3V47.4z"/>
		<linearGradient id="SVGID_6_" gradientUnits="userSpaceOnUse" x1="-5.0607" y1="49.1502" x2="118.2289" y2="49.1502">
			<stop  offset="0" style="stop-color:#ECC45E"/>
			<stop  offset="0.23" style="stop-color:#A67029"/>
			<stop  offset="0.33" style="stop-color:#E1B655"/>
			<stop  offset="0.46" style="stop-color:#F7F0B6"/>
			<stop  offset="0.58" style="stop-color:#E1B655"/>
			<stop  offset="0.69" style="stop-color:#8E5E25"/>
			<stop  offset="1" style="stop-color:#E1B655"/>
		</linearGradient>
		<path class="st6" d="M19.1,49.4l-1.3-2h0.5l1,1.6l1-1.6h0.5l-1.3,2v1.5h-0.4V49.4z"/>
		<linearGradient id="SVGID_7_" gradientUnits="userSpaceOnUse" x1="-5.0607" y1="49.1502" x2="118.2289" y2="49.1502">
			<stop  offset="0" style="stop-color:#ECC45E"/>
			<stop  offset="0.23" style="stop-color:#A67029"/>
			<stop  offset="0.33" style="stop-color:#E1B655"/>
			<stop  offset="0.46" style="stop-color:#F7F0B6"/>
			<stop  offset="0.58" style="stop-color:#E1B655"/>
			<stop  offset="0.69" style="stop-color:#8E5E25"/>
			<stop  offset="1" style="stop-color:#E1B655"/>
		</linearGradient>
		<path class="st7" d="M21.8,47.4H24v0.4h-1.8v1.1h1.7v0.4h-1.7v1.3h1.9v0.4h-2.3V47.4z"/>
		<linearGradient id="SVGID_8_" gradientUnits="userSpaceOnUse" x1="-5.0607" y1="49.1503" x2="118.2289" y2="49.1503">
			<stop  offset="0" style="stop-color:#ECC45E"/>
			<stop  offset="0.23" style="stop-color:#A67029"/>
			<stop  offset="0.33" style="stop-color:#E1B655"/>
			<stop  offset="0.46" style="stop-color:#F7F0B6"/>
			<stop  offset="0.58" style="stop-color:#E1B655"/>
			<stop  offset="0.69" style="stop-color:#8E5E25"/>
			<stop  offset="1" style="stop-color:#E1B655"/>
		</linearGradient>
		<path class="st8" d="M26.9,48c-0.1-0.1-0.2-0.2-0.3-0.2c-0.1-0.1-0.2-0.1-0.4-0.1c-0.1,0-0.2,0-0.3,0c-0.1,0-0.2,0.1-0.2,0.1
			c-0.1,0-0.1,0.1-0.2,0.2c0,0.1-0.1,0.2-0.1,0.3c0,0.1,0,0.2,0,0.2c0,0.1,0.1,0.1,0.1,0.2s0.1,0.1,0.2,0.1c0.1,0,0.2,0.1,0.4,0.1
			c0.1,0,0.3,0.1,0.4,0.1c0.1,0,0.2,0.1,0.3,0.2c0.1,0.1,0.2,0.2,0.2,0.3c0.1,0.1,0.1,0.3,0.1,0.4c0,0.2,0,0.3-0.1,0.5
			c-0.1,0.1-0.2,0.2-0.3,0.3c-0.1,0.1-0.2,0.1-0.4,0.2C26.4,51,26.2,51,26,51c-0.1,0-0.2,0-0.3,0c-0.1,0-0.2,0-0.3-0.1
			c-0.1,0-0.2-0.1-0.3-0.1c-0.1-0.1-0.2-0.1-0.2-0.2l0.4-0.3c0.1,0.1,0.2,0.2,0.3,0.3c0.1,0.1,0.3,0.1,0.4,0.1c0.1,0,0.2,0,0.3,0
			c0.1,0,0.2-0.1,0.2-0.1c0.1-0.1,0.1-0.1,0.2-0.2c0-0.1,0.1-0.2,0.1-0.3c0-0.1,0-0.2-0.1-0.3c0-0.1-0.1-0.1-0.2-0.2
			c-0.1,0-0.2-0.1-0.3-0.1c-0.1,0-0.3-0.1-0.4-0.1c-0.1,0-0.2-0.1-0.3-0.1c-0.1-0.1-0.2-0.1-0.3-0.2c-0.1-0.1-0.1-0.2-0.2-0.3
			c0-0.1-0.1-0.2-0.1-0.4c0-0.2,0-0.3,0.1-0.4c0.1-0.1,0.2-0.2,0.3-0.3c0.1-0.1,0.2-0.1,0.4-0.2c0.1,0,0.3-0.1,0.4-0.1
			c0.2,0,0.4,0,0.5,0.1c0.2,0.1,0.3,0.2,0.4,0.3L26.9,48z"/>
		<linearGradient id="SVGID_9_" gradientUnits="userSpaceOnUse" x1="-5.0607" y1="49.1502" x2="118.2289" y2="49.1502">
			<stop  offset="0" style="stop-color:#ECC45E"/>
			<stop  offset="0.23" style="stop-color:#A67029"/>
			<stop  offset="0.33" style="stop-color:#E1B655"/>
			<stop  offset="0.46" style="stop-color:#F7F0B6"/>
			<stop  offset="0.58" style="stop-color:#E1B655"/>
			<stop  offset="0.69" style="stop-color:#8E5E25"/>
			<stop  offset="1" style="stop-color:#E1B655"/>
		</linearGradient>
		<path class="st9" d="M32.7,47.8h-1.2v3.1h-0.4v-3.1H30v-0.4h2.7V47.8z"/>
		<linearGradient id="SVGID_10_" gradientUnits="userSpaceOnUse" x1="-5.0607" y1="49.1502" x2="118.2289" y2="49.1502">
			<stop  offset="0" style="stop-color:#ECC45E"/>
			<stop  offset="0.23" style="stop-color:#A67029"/>
			<stop  offset="0.33" style="stop-color:#E1B655"/>
			<stop  offset="0.46" style="stop-color:#F7F0B6"/>
			<stop  offset="0.58" style="stop-color:#E1B655"/>
			<stop  offset="0.69" style="stop-color:#8E5E25"/>
			<stop  offset="1" style="stop-color:#E1B655"/>
		</linearGradient>
		<path class="st10" d="M33.7,47.4h0.4v1.5H36v-1.5h0.4v3.5H36v-1.6h-1.9v1.6h-0.4V47.4z"/>
		<linearGradient id="SVGID_11_" gradientUnits="userSpaceOnUse" x1="-5.0607" y1="49.1502" x2="118.2289" y2="49.1502">
			<stop  offset="0" style="stop-color:#ECC45E"/>
			<stop  offset="0.23" style="stop-color:#A67029"/>
			<stop  offset="0.33" style="stop-color:#E1B655"/>
			<stop  offset="0.46" style="stop-color:#F7F0B6"/>
			<stop  offset="0.58" style="stop-color:#E1B655"/>
			<stop  offset="0.69" style="stop-color:#8E5E25"/>
			<stop  offset="1" style="stop-color:#E1B655"/>
		</linearGradient>
		<path class="st11" d="M38.9,47.4h0.4l1.5,3.5h-0.5L40,50h-1.8l-0.4,0.9h-0.5L38.9,47.4z M39.1,47.9L39.1,47.9l-0.7,1.7h1.4
			L39.1,47.9z"/>
		<linearGradient id="SVGID_12_" gradientUnits="userSpaceOnUse" x1="-5.0607" y1="49.1502" x2="118.2289" y2="49.1502">
			<stop  offset="0" style="stop-color:#ECC45E"/>
			<stop  offset="0.23" style="stop-color:#A67029"/>
			<stop  offset="0.33" style="stop-color:#E1B655"/>
			<stop  offset="0.46" style="stop-color:#F7F0B6"/>
			<stop  offset="0.58" style="stop-color:#E1B655"/>
			<stop  offset="0.69" style="stop-color:#8E5E25"/>
			<stop  offset="1" style="stop-color:#E1B655"/>
		</linearGradient>
		<path class="st12" d="M43.7,47.8h-1.2v3.1h-0.4v-3.1h-1.2v-0.4h2.7V47.8z"/>
		<linearGradient id="SVGID_13_" gradientUnits="userSpaceOnUse" x1="-5.0607" y1="49.1502" x2="118.2289" y2="49.1502">
			<stop  offset="0" style="stop-color:#ECC45E"/>
			<stop  offset="0.23" style="stop-color:#A67029"/>
			<stop  offset="0.33" style="stop-color:#E1B655"/>
			<stop  offset="0.46" style="stop-color:#F7F0B6"/>
			<stop  offset="0.58" style="stop-color:#E1B655"/>
			<stop  offset="0.69" style="stop-color:#8E5E25"/>
			<stop  offset="1" style="stop-color:#E1B655"/>
		</linearGradient>
		<path class="st13" d="M46.6,47.4h1.1c0.1,0,0.3,0,0.4,0c0.1,0,0.3,0.1,0.4,0.1c0.1,0.1,0.2,0.2,0.3,0.3c0.1,0.1,0.1,0.2,0.1,0.4
			c0,0.2-0.1,0.4-0.2,0.5c-0.1,0.1-0.3,0.2-0.5,0.3v0c0.1,0,0.2,0,0.3,0.1c0.1,0,0.2,0.1,0.3,0.2c0.1,0.1,0.1,0.2,0.2,0.3
			c0,0.1,0.1,0.2,0.1,0.3c0,0.2,0,0.4-0.1,0.5c-0.1,0.1-0.2,0.2-0.3,0.3s-0.3,0.1-0.4,0.2c-0.2,0-0.3,0-0.5,0h-1V47.4z M47,48.9h0.6
			c0.1,0,0.2,0,0.3,0c0.1,0,0.2,0,0.3-0.1c0.1,0,0.1-0.1,0.2-0.2c0-0.1,0.1-0.2,0.1-0.3c0-0.1,0-0.2-0.1-0.3c0-0.1-0.1-0.1-0.2-0.2
			c-0.1,0-0.2-0.1-0.2-0.1c-0.1,0-0.2,0-0.3,0H47V48.9z M47,50.5h0.7c0.1,0,0.2,0,0.3,0c0.1,0,0.2-0.1,0.3-0.1
			c0.1,0,0.1-0.1,0.2-0.2c0-0.1,0.1-0.2,0.1-0.3c0-0.1,0-0.2-0.1-0.3c0-0.1-0.1-0.1-0.2-0.2c-0.1,0-0.2-0.1-0.3-0.1
			c-0.1,0-0.2,0-0.3,0H47V50.5z"/>
		<linearGradient id="SVGID_14_" gradientUnits="userSpaceOnUse" x1="-5.0607" y1="49.195" x2="118.2289" y2="49.195">
			<stop  offset="0" style="stop-color:#ECC45E"/>
			<stop  offset="0.23" style="stop-color:#A67029"/>
			<stop  offset="0.33" style="stop-color:#E1B655"/>
			<stop  offset="0.46" style="stop-color:#F7F0B6"/>
			<stop  offset="0.58" style="stop-color:#E1B655"/>
			<stop  offset="0.69" style="stop-color:#8E5E25"/>
			<stop  offset="1" style="stop-color:#E1B655"/>
		</linearGradient>
		<path class="st14" d="M52.8,49.6c0,0.2,0,0.4-0.1,0.5c0,0.2-0.1,0.3-0.2,0.5c-0.1,0.1-0.2,0.2-0.4,0.3C52,51,51.7,51,51.5,51
			c-0.2,0-0.4,0-0.6-0.1c-0.2-0.1-0.3-0.2-0.4-0.3c-0.1-0.1-0.2-0.3-0.2-0.5c0-0.2-0.1-0.4-0.1-0.5v-2.2h0.4v2.1c0,0.1,0,0.3,0,0.4
			s0.1,0.3,0.1,0.4c0.1,0.1,0.2,0.2,0.3,0.2c0.1,0.1,0.3,0.1,0.4,0.1s0.3,0,0.4-0.1c0.1-0.1,0.2-0.1,0.3-0.2
			c0.1-0.1,0.1-0.2,0.1-0.4c0-0.1,0-0.3,0-0.4v-2.1h0.4V49.6z"/>
		<linearGradient id="SVGID_15_" gradientUnits="userSpaceOnUse" x1="-5.0607" y1="49.1502" x2="118.2289" y2="49.1502">
			<stop  offset="0" style="stop-color:#ECC45E"/>
			<stop  offset="0.23" style="stop-color:#A67029"/>
			<stop  offset="0.33" style="stop-color:#E1B655"/>
			<stop  offset="0.46" style="stop-color:#F7F0B6"/>
			<stop  offset="0.58" style="stop-color:#E1B655"/>
			<stop  offset="0.69" style="stop-color:#8E5E25"/>
			<stop  offset="1" style="stop-color:#E1B655"/>
		</linearGradient>
		<path class="st15" d="M54.2,47.4h0.4v3.5h-0.4V47.4z"/>
		<linearGradient id="SVGID_16_" gradientUnits="userSpaceOnUse" x1="-5.0607" y1="49.1502" x2="118.2289" y2="49.1502">
			<stop  offset="0" style="stop-color:#ECC45E"/>
			<stop  offset="0.23" style="stop-color:#A67029"/>
			<stop  offset="0.33" style="stop-color:#E1B655"/>
			<stop  offset="0.46" style="stop-color:#F7F0B6"/>
			<stop  offset="0.58" style="stop-color:#E1B655"/>
			<stop  offset="0.69" style="stop-color:#8E5E25"/>
			<stop  offset="1" style="stop-color:#E1B655"/>
		</linearGradient>
		<path class="st16" d="M56,47.4h0.4v3.1H58v0.4h-2V47.4z"/>
		<linearGradient id="SVGID_17_" gradientUnits="userSpaceOnUse" x1="-5.0607" y1="49.1502" x2="118.2289" y2="49.1502">
			<stop  offset="0" style="stop-color:#ECC45E"/>
			<stop  offset="0.23" style="stop-color:#A67029"/>
			<stop  offset="0.33" style="stop-color:#E1B655"/>
			<stop  offset="0.46" style="stop-color:#F7F0B6"/>
			<stop  offset="0.58" style="stop-color:#E1B655"/>
			<stop  offset="0.69" style="stop-color:#8E5E25"/>
			<stop  offset="1" style="stop-color:#E1B655"/>
		</linearGradient>
		<path class="st17" d="M58.9,47.4h1.4c0.1,0,0.2,0,0.4,0s0.3,0.1,0.4,0.1c0.1,0.1,0.3,0.1,0.4,0.2c0.1,0.1,0.2,0.2,0.3,0.3
			c0.1,0.1,0.2,0.3,0.2,0.5c0.1,0.2,0.1,0.4,0.1,0.6c0,0.2,0,0.4-0.1,0.6c-0.1,0.2-0.1,0.3-0.2,0.5c-0.1,0.1-0.2,0.2-0.3,0.3
			c-0.1,0.1-0.2,0.2-0.4,0.2c-0.1,0.1-0.3,0.1-0.4,0.1c-0.1,0-0.3,0-0.4,0h-1.4V47.4z M59.3,50.5h0.8c0.2,0,0.4,0,0.6-0.1
			c0.2-0.1,0.3-0.1,0.4-0.2c0.1-0.1,0.2-0.3,0.3-0.4c0.1-0.2,0.1-0.4,0.1-0.6c0-0.2,0-0.4-0.1-0.6c-0.1-0.2-0.2-0.3-0.3-0.4
			c-0.1-0.1-0.3-0.2-0.4-0.2c-0.2-0.1-0.4-0.1-0.6-0.1h-0.8V50.5z"/>
		<linearGradient id="SVGID_18_" gradientUnits="userSpaceOnUse" x1="-5.0607" y1="49.1502" x2="118.2289" y2="49.1502">
			<stop  offset="0" style="stop-color:#ECC45E"/>
			<stop  offset="0.23" style="stop-color:#A67029"/>
			<stop  offset="0.33" style="stop-color:#E1B655"/>
			<stop  offset="0.46" style="stop-color:#F7F0B6"/>
			<stop  offset="0.58" style="stop-color:#E1B655"/>
			<stop  offset="0.69" style="stop-color:#8E5E25"/>
			<stop  offset="1" style="stop-color:#E1B655"/>
		</linearGradient>
		<path class="st18" d="M65.9,49.4l-1.3-2h0.5l1,1.6l1-1.6h0.5l-1.3,2v1.5h-0.4V49.4z"/>
		<linearGradient id="SVGID_19_" gradientUnits="userSpaceOnUse" x1="-5.0607" y1="49.1503" x2="118.2289" y2="49.1503">
			<stop  offset="0" style="stop-color:#ECC45E"/>
			<stop  offset="0.23" style="stop-color:#A67029"/>
			<stop  offset="0.33" style="stop-color:#E1B655"/>
			<stop  offset="0.46" style="stop-color:#F7F0B6"/>
			<stop  offset="0.58" style="stop-color:#E1B655"/>
			<stop  offset="0.69" style="stop-color:#8E5E25"/>
			<stop  offset="1" style="stop-color:#E1B655"/>
		</linearGradient>
		<path class="st19" d="M70.1,51c-0.3,0-0.5,0-0.7-0.1c-0.2-0.1-0.4-0.2-0.6-0.4c-0.2-0.2-0.3-0.4-0.4-0.6c-0.1-0.2-0.1-0.5-0.1-0.7
			c0-0.3,0-0.5,0.1-0.7c0.1-0.2,0.2-0.4,0.4-0.6c0.2-0.2,0.4-0.3,0.6-0.4c0.2-0.1,0.5-0.1,0.7-0.1c0.3,0,0.5,0,0.7,0.1
			c0.2,0.1,0.4,0.2,0.6,0.4c0.2,0.2,0.3,0.4,0.4,0.6c0.1,0.2,0.1,0.5,0.1,0.7c0,0.3,0,0.5-0.1,0.7s-0.2,0.4-0.4,0.6
			c-0.2,0.2-0.4,0.3-0.6,0.4C70.6,51,70.4,51,70.1,51z M70.1,50.6c0.2,0,0.4,0,0.6-0.1c0.2-0.1,0.3-0.2,0.4-0.3
			c0.1-0.1,0.2-0.3,0.3-0.5s0.1-0.4,0.1-0.6c0-0.2,0-0.4-0.1-0.6c-0.1-0.2-0.2-0.3-0.3-0.5c-0.1-0.1-0.3-0.2-0.4-0.3
			c-0.2-0.1-0.4-0.1-0.6-0.1c-0.2,0-0.4,0-0.6,0.1c-0.2,0.1-0.3,0.2-0.4,0.3c-0.1,0.1-0.2,0.3-0.3,0.5c-0.1,0.2-0.1,0.4-0.1,0.6
			c0,0.2,0,0.4,0.1,0.6s0.2,0.3,0.3,0.5c0.1,0.1,0.3,0.2,0.4,0.3C69.7,50.6,69.9,50.6,70.1,50.6z"/>
		<linearGradient id="SVGID_20_" gradientUnits="userSpaceOnUse" x1="-5.0607" y1="49.195" x2="118.2289" y2="49.195">
			<stop  offset="0" style="stop-color:#ECC45E"/>
			<stop  offset="0.23" style="stop-color:#A67029"/>
			<stop  offset="0.33" style="stop-color:#E1B655"/>
			<stop  offset="0.46" style="stop-color:#F7F0B6"/>
			<stop  offset="0.58" style="stop-color:#E1B655"/>
			<stop  offset="0.69" style="stop-color:#8E5E25"/>
			<stop  offset="1" style="stop-color:#E1B655"/>
		</linearGradient>
		<path class="st20" d="M75.8,49.6c0,0.2,0,0.4-0.1,0.5c0,0.2-0.1,0.3-0.2,0.5c-0.1,0.1-0.2,0.2-0.4,0.3C74.9,51,74.7,51,74.4,51
			c-0.2,0-0.4,0-0.6-0.1c-0.2-0.1-0.3-0.2-0.4-0.3c-0.1-0.1-0.2-0.3-0.2-0.5c0-0.2-0.1-0.4-0.1-0.5v-2.2h0.4v2.1c0,0.1,0,0.3,0,0.4
			s0.1,0.3,0.1,0.4c0.1,0.1,0.2,0.2,0.3,0.2c0.1,0.1,0.3,0.1,0.4,0.1c0.2,0,0.3,0,0.4-0.1c0.1-0.1,0.2-0.1,0.3-0.2
			c0.1-0.1,0.1-0.2,0.1-0.4s0-0.3,0-0.4v-2.1h0.4V49.6z"/>
		<linearGradient id="SVGID_21_" gradientUnits="userSpaceOnUse" x1="-5.0607" y1="49.1502" x2="118.2289" y2="49.1502">
			<stop  offset="0" style="stop-color:#ECC45E"/>
			<stop  offset="0.23" style="stop-color:#A67029"/>
			<stop  offset="0.33" style="stop-color:#E1B655"/>
			<stop  offset="0.46" style="stop-color:#F7F0B6"/>
			<stop  offset="0.58" style="stop-color:#E1B655"/>
			<stop  offset="0.69" style="stop-color:#8E5E25"/>
			<stop  offset="1" style="stop-color:#E1B655"/>
		</linearGradient>
		<path class="st21" d="M77.1,47.4H78c0.2,0,0.3,0,0.5,0c0.2,0,0.3,0.1,0.5,0.1c0.1,0.1,0.2,0.2,0.3,0.3c0.1,0.1,0.1,0.3,0.1,0.5
			c0,0.3-0.1,0.5-0.2,0.6c-0.2,0.2-0.4,0.3-0.6,0.3l1,1.6H79l-1-1.6h-0.5v1.6h-0.4V47.4z M77.5,48.9h0.4c0.1,0,0.2,0,0.4,0
			c0.1,0,0.2,0,0.3-0.1s0.2-0.1,0.3-0.2c0.1-0.1,0.1-0.2,0.1-0.3c0-0.1,0-0.2-0.1-0.3c0-0.1-0.1-0.1-0.2-0.2c-0.1,0-0.2-0.1-0.3-0.1
			c-0.1,0-0.2,0-0.3,0h-0.6V48.9z"/>
		<linearGradient id="SVGID_22_" gradientUnits="userSpaceOnUse" x1="-5.0607" y1="49.1503" x2="118.2289" y2="49.1503">
			<stop  offset="0" style="stop-color:#ECC45E"/>
			<stop  offset="0.23" style="stop-color:#A67029"/>
			<stop  offset="0.33" style="stop-color:#E1B655"/>
			<stop  offset="0.46" style="stop-color:#F7F0B6"/>
			<stop  offset="0.58" style="stop-color:#E1B655"/>
			<stop  offset="0.69" style="stop-color:#8E5E25"/>
			<stop  offset="1" style="stop-color:#E1B655"/>
		</linearGradient>
		<path class="st22" d="M84.2,48c-0.1-0.1-0.2-0.2-0.3-0.2c-0.1-0.1-0.2-0.1-0.4-0.1c-0.1,0-0.2,0-0.3,0c-0.1,0-0.2,0.1-0.2,0.1
			c-0.1,0-0.1,0.1-0.2,0.2c0,0.1-0.1,0.2-0.1,0.3c0,0.1,0,0.2,0,0.2c0,0.1,0.1,0.1,0.1,0.2c0.1,0,0.1,0.1,0.2,0.1
			c0.1,0,0.2,0.1,0.4,0.1c0.1,0,0.3,0.1,0.4,0.1c0.1,0,0.2,0.1,0.3,0.2c0.1,0.1,0.2,0.2,0.2,0.3c0.1,0.1,0.1,0.3,0.1,0.4
			c0,0.2,0,0.3-0.1,0.5c-0.1,0.1-0.2,0.2-0.3,0.3c-0.1,0.1-0.2,0.1-0.4,0.2c-0.1,0-0.3,0.1-0.5,0.1c-0.1,0-0.2,0-0.3,0
			c-0.1,0-0.2,0-0.3-0.1c-0.1,0-0.2-0.1-0.3-0.1c-0.1-0.1-0.2-0.1-0.2-0.2l0.4-0.3c0.1,0.1,0.2,0.2,0.3,0.3c0.1,0.1,0.3,0.1,0.4,0.1
			c0.1,0,0.2,0,0.3,0c0.1,0,0.2-0.1,0.2-0.1c0.1-0.1,0.1-0.1,0.2-0.2c0-0.1,0.1-0.2,0.1-0.3c0-0.1,0-0.2-0.1-0.3
			c0-0.1-0.1-0.1-0.2-0.2c-0.1,0-0.2-0.1-0.3-0.1c-0.1,0-0.3-0.1-0.4-0.1c-0.1,0-0.2-0.1-0.3-0.1c-0.1-0.1-0.2-0.1-0.3-0.2
			c-0.1-0.1-0.1-0.2-0.2-0.3c0-0.1-0.1-0.2-0.1-0.4c0-0.2,0-0.3,0.1-0.4c0.1-0.1,0.2-0.2,0.3-0.3c0.1-0.1,0.2-0.1,0.4-0.2
			c0.1,0,0.3-0.1,0.4-0.1c0.2,0,0.4,0,0.5,0.1c0.2,0.1,0.3,0.2,0.4,0.3L84.2,48z"/>
		<linearGradient id="SVGID_23_" gradientUnits="userSpaceOnUse" x1="-5.0607" y1="49.1502" x2="118.2289" y2="49.1502">
			<stop  offset="0" style="stop-color:#ECC45E"/>
			<stop  offset="0.23" style="stop-color:#A67029"/>
			<stop  offset="0.33" style="stop-color:#E1B655"/>
			<stop  offset="0.46" style="stop-color:#F7F0B6"/>
			<stop  offset="0.58" style="stop-color:#E1B655"/>
			<stop  offset="0.69" style="stop-color:#8E5E25"/>
			<stop  offset="1" style="stop-color:#E1B655"/>
		</linearGradient>
		<path class="st23" d="M88.2,47.8H87v3.1h-0.4v-3.1h-1.2v-0.4h2.7V47.8z"/>
		<linearGradient id="SVGID_24_" gradientUnits="userSpaceOnUse" x1="-5.0607" y1="49.1502" x2="118.2289" y2="49.1502">
			<stop  offset="0" style="stop-color:#ECC45E"/>
			<stop  offset="0.23" style="stop-color:#A67029"/>
			<stop  offset="0.33" style="stop-color:#E1B655"/>
			<stop  offset="0.46" style="stop-color:#F7F0B6"/>
			<stop  offset="0.58" style="stop-color:#E1B655"/>
			<stop  offset="0.69" style="stop-color:#8E5E25"/>
			<stop  offset="1" style="stop-color:#E1B655"/>
		</linearGradient>
		<path class="st24" d="M90,49.4l-1.3-2h0.5l1,1.6l1-1.6h0.5l-1.3,2v1.5H90V49.4z"/>
		<linearGradient id="SVGID_25_" gradientUnits="userSpaceOnUse" x1="-5.0607" y1="49.1502" x2="118.2289" y2="49.1502">
			<stop  offset="0" style="stop-color:#ECC45E"/>
			<stop  offset="0.23" style="stop-color:#A67029"/>
			<stop  offset="0.33" style="stop-color:#E1B655"/>
			<stop  offset="0.46" style="stop-color:#F7F0B6"/>
			<stop  offset="0.58" style="stop-color:#E1B655"/>
			<stop  offset="0.69" style="stop-color:#8E5E25"/>
			<stop  offset="1" style="stop-color:#E1B655"/>
		</linearGradient>
		<path class="st25" d="M92.6,47.4H93v3.1h1.6v0.4h-2V47.4z"/>
		<linearGradient id="SVGID_26_" gradientUnits="userSpaceOnUse" x1="-5.0607" y1="49.1502" x2="118.2289" y2="49.1502">
			<stop  offset="0" style="stop-color:#ECC45E"/>
			<stop  offset="0.23" style="stop-color:#A67029"/>
			<stop  offset="0.33" style="stop-color:#E1B655"/>
			<stop  offset="0.46" style="stop-color:#F7F0B6"/>
			<stop  offset="0.58" style="stop-color:#E1B655"/>
			<stop  offset="0.69" style="stop-color:#8E5E25"/>
			<stop  offset="1" style="stop-color:#E1B655"/>
		</linearGradient>
		<path class="st26" d="M95.6,47.4h2.2v0.4H96v1.1h1.7v0.4H96v1.3h1.9v0.4h-2.3V47.4z"/>
	</g>
</g>
</svg>
